# xmcd
#
# Track frame offsets: 
#        187
#        16860
#        32695
#        50387
#        65385
#        80915
#        97460
#        121437
#        142482
#        154470
#        169675
#        186842
#        202725
#        221807
#
# Disc length: 3136 seconds
#
# Revision: 1
# Processed by: cddbd v1.5.2PL0 Copyright (c) Steve Scherf et al.
# Submitted via: ExactAudioCopyFreeDBPlugin 1.0
#
DISCID=d40c3e0e
DTITLE=Dionne Warwick - Sings Cole Porter
DYEAR=1990
DGENRE=Soul
TTITLE0=Night And Day
TTITLE1=I Love Paris
TTITLE2=I Get A Kick Out Of You
TTITLE3=What Is This Thing Called Love - So In Love (Medley)
TTITLE4=You're The Top
TTITLE5=I've Got You Under My Skin
TTITLE6=Begin The Beguine
TTITLE7=It's All Right With Me
TTITLE8=Anything Goes
TTITLE9=All Of You
TTITLE10=I Concentrate On You
TTITLE11=Just One Of Those Things
TTITLE12=Night And Day (Jazz Version)
TTITLE13=You'd Be So Nice To Come Home To
EXTD=YEAR: 2000
EXTT0=
EXTT1=
EXTT2=
EXTT3=
EXTT4=
EXTT5=
EXTT6=
EXTT7=
EXTT8=
EXTT9=
EXTT10=
EXTT11=
EXTT12=
EXTT13=
PLAYORDER=
